<svg xmlns="http://www.w3.org/2000/svg" width="158.00781" height="32" viewBox="0 0 158.00781 32">
  <title>Asset 4</title>
  <g id="Layer_2" data-name="Layer 2">
    <g id="Layer_1-2" data-name="Layer 1">
      <text transform="translate(34 24)" style="font-size: 23px;fill: #fff;font-family: Rubik-Regular, Rubik">Cousteau</text>
      <text transform="translate(139 16)" style="font-size: 12px;fill: #fff;font-family: Rubik-Regular, Rubik">P<tspan x="7.68018" y="0" style="letter-spacing: -0.010986328125em">r</tspan><tspan x="12.08398" y="0">o</tspan></text>
      <path d="M16,32h0a1.17864,1.17864,0,0,1-1.18356-1.18356V27.83562a11.72273,11.72273,0,0,1-6.35617-2.63014L6.35616,27.30959a1.219,1.219,0,0,1-1.66575,0h0a1.219,1.219,0,0,1,0-1.66575l2.10411-2.10411A11.58822,11.58822,0,0,1,4.16438,17.2274H1.18356A1.17865,1.17865,0,0,1,0,16.04383H0a1.17864,1.17864,0,0,1,1.18356-1.18356H4.16438A11.99471,11.99471,0,0,1,6.79452,8.41644L4.69041,6.35616a1.219,1.219,0,0,1,0-1.66575h0a1.219,1.219,0,0,1,1.66575,0L8.46027,6.79452a11.72273,11.72273,0,0,1,6.35617-2.63014V1.18356A1.17864,1.17864,0,0,1,16,0h0a1.17864,1.17864,0,0,1,1.18356,1.18356V4.16438a11.72273,11.72273,0,0,1,6.35617,2.63014l2.14794-2.14794a1.21906,1.21906,0,0,1,1.66576,0h0a1.21907,1.21907,0,0,1,0,1.66575L25.20548,8.46027a11.99478,11.99478,0,0,1,2.63014,6.44384h2.98082A1.17864,1.17864,0,0,1,32,16.08767h0a1.17864,1.17864,0,0,1-1.18356,1.18356H27.83562a11.58819,11.58819,0,0,1-2.63014,6.31233l2.14795,2.148a1.21907,1.21907,0,0,1,0,1.66575h0a1.21906,1.21906,0,0,1-1.66576,0l-2.14794-2.19178a11.72273,11.72273,0,0,1-6.35617,2.63014v2.98082A1.17864,1.17864,0,0,1,16,32Zm-5.874-8.46027a9.71958,9.71958,0,0,0,4.69041,1.9726l.56986-7.05754a2.06627,2.06627,0,0,1-.65753-.263ZM16.6137,18.411l.56986,7.05753a9.31823,9.31823,0,0,0,4.69041-1.9726L17.27123,18.148A2.06673,2.06673,0,0,1,16.6137,18.411ZM6.53151,17.2274A9.50553,9.50553,0,0,0,8.46027,21.874l5.43562-4.60274a2.59054,2.59054,0,0,1-.263-.6137Zm11.5726.04383L23.53973,21.874a9.50553,9.50553,0,0,0,1.92876-4.64657l-7.10137-.56986A1.53681,1.53681,0,0,1,18.10411,17.27123Zm.263-1.79726,7.14521-.56986a9.6106,9.6106,0,0,0-1.9726-4.77808l-5.43562,4.69041A2.28481,2.28481,0,0,1,18.36712,15.474ZM6.48767,14.90411l7.14521.56986a2.06636,2.06636,0,0,1,.263-.65753L8.46027,10.126A9.8496,9.8496,0,0,0,6.48767,14.90411ZM10.126,8.46027l4.64657,5.47946a2.59056,2.59056,0,0,1,.6137-.263l-.56986-7.189A9.71958,9.71958,0,0,0,10.126,8.46027Zm6.48767,5.26028a1.53679,1.53679,0,0,1,.6137.263L21.874,8.50411a9.71939,9.71939,0,0,0-4.69041-1.9726Z" style="fill: #fff"/>
    </g>
  </g>
</svg>
